<?xml version="1.0" encoding="utf-8"?>
<!-- Generator: Adobe Illustrator 26.5.0, SVG Export Plug-In . SVG Version: 6.00 Build 0)  -->
<svg version="1.1" id="Capa_2_00000041293800215533270730000011223160982580344969_"
	 xmlns="http://www.w3.org/2000/svg" xmlns:xlink="http://www.w3.org/1999/xlink" x="0px" y="0px" viewBox="0 0 106.8 46.6"
	 style="enable-background:new 0 0 106.8 46.6;" xml:space="preserve">
<style type="text/css">
	.st0{fill:#B61917;}
</style>
<g id="Capa_1-2">
	<g>
		<g>
			<path class="st0" d="M15.4,22.6h-4.2v5.4h-1V14.8h5.3c2.2,0,4,1.8,4,3.9c0,1.8-1.2,3.3-3,3.8l3.3,5.6h-1.2
				C18.6,28.1,15.4,22.6,15.4,22.6z M11.1,21.7h4.3c1.6,0,3-1.3,3-3s-1.3-3-2.9-3h-4.3C11.1,15.7,11.1,21.7,11.1,21.7z"/>
			<path class="st0" d="M30.2,23.4c0,0.1,0,0.3,0,0.5h-8.7c0.2,2.1,1.9,3.5,4.1,3.5c1.6,0,2.8-0.7,3.3-1.7l0.8,0.5
				c-0.8,1.3-2.3,2.1-4.2,2.1c-3,0-5-2.1-5-4.9s2-5,5-5S30.2,20.8,30.2,23.4L30.2,23.4z M21.5,22.9h7.7c-0.2-2.3-1.9-3.6-3.7-3.6
				C23.3,19.3,21.7,20.8,21.5,22.9L21.5,22.9z"/>
			<path class="st0" d="M38.5,25.6c0,1.6-1.4,2.7-3.4,2.7c-1.9,0-3.2-0.9-3.6-2.1l0.8-0.5c0.3,1,1.4,1.7,2.8,1.7
				c1.3,0,2.5-0.6,2.5-1.8c0-2.6-5.8-1.1-5.8-4.5c0-1.5,1.3-2.7,3.3-2.7c1.5,0,2.7,0.7,3.3,1.9l-0.8,0.5c-0.4-1-1.4-1.4-2.5-1.4
				c-1.2,0-2.3,0.6-2.3,1.8C32.7,23.6,38.6,22.1,38.5,25.6L38.5,25.6z"/>
			<path class="st0" d="M50.9,23.3c0,2.8-2.2,5-5,5c-1.9,0-3.3-1-4.1-2.4v6h-1V18.6h1v2.2c0.8-1.5,2.3-2.4,4.1-2.4
				C48.7,18.4,50.9,20.5,50.9,23.3L50.9,23.3z M49.9,23.3c0-2.3-1.8-4-4.1-4s-4.1,1.8-4.1,4s1.8,4,4.1,4S49.9,25.6,49.9,23.3z"/>
			<path class="st0" d="M52.6,23.3c0-2.8,2.2-5,5-5s5,2.1,5,5s-2.2,5-5,5S52.6,26.1,52.6,23.3z M61.6,23.3c0-2.3-1.8-4-4-4
				s-4.1,1.8-4.1,4s1.8,4,4.1,4S61.6,25.6,61.6,23.3z"/>
			<path class="st0" d="M73,22.2v5.9h-1v-5.9c0-1.8-1-2.9-2.8-2.9s-3.3,1.2-3.3,3.8v5h-1v-9.5h1v1.8c0.7-1.4,1.9-2,3.4-2
				C71.6,18.4,73,19.9,73,22.2z"/>
			<path class="st0" d="M82.2,25.6c0,1.6-1.4,2.7-3.4,2.7c-1.9,0-3.2-0.9-3.6-2.1l0.8-0.5c0.3,1,1.4,1.7,2.8,1.7
				c1.3,0,2.5-0.6,2.5-1.8c0-2.6-5.8-1.1-5.8-4.5c0-1.5,1.3-2.7,3.3-2.7c1.6,0,2.7,0.7,3.3,1.9l-0.8,0.5c-0.4-1-1.4-1.4-2.4-1.4
				c-1.2,0-2.3,0.6-2.3,1.8C76.4,23.6,82.2,22.1,82.2,25.6L82.2,25.6z"/>
			<path class="st0" d="M84.1,15.5c0-0.4,0.3-0.7,0.8-0.7s0.8,0.3,0.8,0.7s-0.3,0.8-0.8,0.8S84.1,15.9,84.1,15.5z M84.4,18.6h1v9.5
				h-1V18.6z"/>
			<path class="st0" d="M96.4,18.6l-4,9.5h-1.2l-4.1-9.5h1l3.6,8.5l3.6-8.5H96.4z"/>
			<path class="st0" d="M106.8,23.4c0,0.1,0,0.3,0,0.5h-8.7c0.2,2.1,1.9,3.5,4.1,3.5c1.6,0,2.8-0.7,3.3-1.7l0.8,0.5
				c-0.8,1.3-2.3,2.1-4.2,2.1c-2.9,0-5-2.1-5-4.9s2-5,5-5S106.7,20.8,106.8,23.4L106.8,23.4z M98.1,22.9h7.7
				c-0.2-2.3-1.9-3.6-3.7-3.6C99.8,19.3,98.3,20.8,98.1,22.9L98.1,22.9z"/>
		</g>
		<g>
			<path class="st0" d="M53,32.3c0,0.2,0.2,0.5,0.7,0.5s0.7-0.2,0.7-0.4s-0.1-0.3-0.4-0.3L53.3,32c-0.3,0-0.6-0.3-0.6-0.6
				c0-0.5,0.4-0.8,1.1-0.8c0.8,0,1.1,0.3,1.1,0.8h-0.5c0-0.2-0.2-0.4-0.7-0.4c-0.3,0-0.6,0.1-0.6,0.4c0,0.1,0.1,0.2,0.4,0.3l0.6,0.1
				c0.6,0.1,0.8,0.3,0.8,0.6c0,0.5-0.5,0.8-1.2,0.8c-0.5,0-1.2-0.1-1.2-0.8L53,32.3L53,32.3z"/>
			<path class="st0" d="M56.6,30.6c0.9,0,1.4,0.6,1.4,1.2c0,0.7-0.5,1.2-1.4,1.2s-1.4-0.6-1.4-1.2S55.7,30.6,56.6,30.6z M56.6,31
				c-0.7,0-0.9,0.5-0.9,0.9s0.2,0.9,0.9,0.9s0.9-0.5,0.9-0.9S57.2,31,56.6,31z"/>
			<path class="st0" d="M58.4,29.8h0.5V33h-0.5V29.8z"/>
			<path class="st0" d="M61.7,33h-0.5v-0.3l0,0c-0.2,0.3-0.6,0.4-0.9,0.4c-0.6,0-1-0.2-1-0.8v-1.6h0.5v1.5c0,0.3,0.2,0.5,0.7,0.5
				c0.4,0,0.8-0.2,0.8-0.7v-1.3h0.5L61.7,33L61.7,33z"/>
			<path class="st0" d="M64.7,32.2c-0.2,0.7-0.6,0.9-1.2,0.9c-0.9,0-1.3-0.6-1.3-1.2c0-0.7,0.4-1.2,1.3-1.2c0.6,0,1.1,0.3,1.2,0.9
				h-0.5c-0.1-0.3-0.3-0.5-0.7-0.5c-0.6,0-0.8,0.4-0.8,0.9c0,0.5,0.2,0.9,0.8,0.9c0.4,0,0.6-0.2,0.7-0.6L64.7,32.2L64.7,32.2z"/>
			<path class="st0" d="M65.1,29.8h0.4v0.5h-0.4V29.8z M65.1,30.7h0.4V33h-0.4C65.1,33,65.1,30.7,65.1,30.7z"/>
			<path class="st0" d="M67.3,30.6c0.9,0,1.4,0.6,1.4,1.2c0,0.7-0.4,1.2-1.4,1.2S66,32.5,66,31.9S66.4,30.6,67.3,30.6z M67.3,31
				c-0.7,0-0.9,0.5-0.9,0.9s0.2,0.9,0.9,0.9s0.9-0.5,0.9-0.9S68,31,67.3,31z"/>
			<path class="st0" d="M69.1,30.7h0.4v0.4l0,0c0.2-0.3,0.6-0.4,0.9-0.4c0.6,0,1,0.2,1,0.8V33H71v-1.5c0-0.3-0.2-0.5-0.7-0.5
				c-0.4,0-0.8,0.2-0.8,0.7V33h-0.4L69.1,30.7L69.1,30.7z"/>
			<path class="st0" d="M72.4,32c0,0.5,0.5,0.7,0.9,0.7c0.2,0,0.6-0.1,0.8-0.4h0.5c-0.2,0.6-0.8,0.8-1.2,0.8c-0.9,0-1.4-0.6-1.4-1.2
				s0.4-1.2,1.4-1.2c0.6,0,1.3,0.4,1.3,1.3V32L72.4,32L72.4,32z M74.1,31.7C74,31.2,73.7,31,73.2,31s-0.8,0.2-0.8,0.6H74.1
				L74.1,31.7z"/>
			<path class="st0" d="M75.3,32.3c0,0.2,0.2,0.5,0.7,0.5s0.7-0.2,0.7-0.4s-0.1-0.3-0.4-0.3L75.6,32c-0.3,0-0.6-0.3-0.6-0.6
				c0-0.5,0.4-0.8,1.1-0.8c0.8,0,1.1,0.3,1.1,0.8h-0.4c0-0.2-0.2-0.4-0.7-0.4c-0.3,0-0.6,0.1-0.6,0.4c0,0.1,0.1,0.2,0.4,0.3l0.6,0.1
				c0.6,0.1,0.8,0.3,0.8,0.6c0,0.5-0.5,0.8-1.2,0.8c-0.5,0-1.2-0.1-1.2-0.8L75.3,32.3L75.3,32.3z"/>
			<path class="st0" d="M79.1,31.4c0.1-0.6,0.5-0.8,1.2-0.8c0.5,0,1.1,0.1,1.1,0.7v1.2c0,0.1,0.1,0.2,0.2,0.2c0.1,0,0.1,0,0.2,0V33
				c-0.1,0-0.2,0-0.3,0c-0.2,0-0.4-0.1-0.4-0.3c-0.2,0.2-0.6,0.4-1,0.4c-0.8,0-0.9-0.4-0.9-0.7c0-0.4,0.2-0.6,1-0.7l0.5,0
				c0.2,0,0.4-0.1,0.4-0.3c0-0.3-0.3-0.4-0.7-0.4c-0.4,0-0.7,0.1-0.7,0.5L79.1,31.4L79.1,31.4z M80.9,31.8c-0.1,0.1-0.2,0.1-0.4,0.1
				L80,32c-0.3,0-0.5,0.1-0.5,0.4c0,0.2,0.2,0.4,0.5,0.4c0.5,0,0.9-0.3,0.9-0.7C80.9,32.1,80.9,31.8,80.9,31.8z"/>
			<path class="st0" d="M83.7,30h0.4v0.7h0.7V31h-0.7v1.4c0,0.2,0.1,0.2,0.4,0.2c0.1,0,0.2,0,0.3,0v0.4c-0.2,0-0.3,0-0.5,0
				c-0.4,0-0.6-0.2-0.6-0.5V31h-0.5v-0.3h0.5C83.7,30.7,83.7,30,83.7,30z"/>
			<path class="st0" d="M87.5,33h-0.4v-0.3l0,0c-0.2,0.3-0.6,0.4-0.9,0.4c-0.6,0-1-0.2-1-0.8v-1.6h0.4v1.5c0,0.3,0.2,0.5,0.7,0.5
				c0.4,0,0.8-0.2,0.8-0.7v-1.3h0.4L87.5,33L87.5,33z"/>
			<path class="st0" d="M93.1,31.5c0-0.4-0.3-0.5-0.6-0.5c-0.4,0-0.8,0.2-0.8,0.6V33h-0.4v-1.5c0-0.4-0.3-0.5-0.6-0.5
				c-0.4,0-0.8,0.2-0.8,0.7V33h-0.4v-2.3H90v0.4l0,0c0.2-0.3,0.6-0.4,0.9-0.4c0.3,0,0.6,0.1,0.8,0.4c0.2-0.3,0.5-0.4,0.9-0.4
				c0.2,0,0.9,0.1,0.9,0.8V33h-0.4L93.1,31.5L93.1,31.5z"/>
			<path class="st0" d="M94.5,32c0,0.5,0.5,0.7,0.9,0.7c0.2,0,0.6-0.1,0.8-0.4h0.5c-0.2,0.6-0.8,0.8-1.2,0.8c-0.9,0-1.4-0.6-1.4-1.2
				s0.4-1.2,1.4-1.2c0.6,0,1.3,0.4,1.3,1.3V32L94.5,32L94.5,32z M96.1,31.7c-0.1-0.4-0.4-0.6-0.8-0.6s-0.8,0.2-0.8,0.6H96.1
				L96.1,31.7z"/>
			<path class="st0" d="M99.1,32.7L99.1,32.7c-0.2,0.2-0.5,0.4-0.9,0.4c-0.7,0-1.3-0.5-1.3-1.2s0.6-1.2,1.3-1.2
				c0.3,0,0.7,0.1,0.9,0.4l0,0v-1.2h0.4V33h-0.4V32.7L99.1,32.7z M98.3,32.7c0.6,0,0.9-0.4,0.9-0.9c0-0.5-0.3-0.9-0.9-0.9
				s-0.9,0.3-0.9,0.9C97.4,32.3,97.7,32.7,98.3,32.7z"/>
			<path class="st0" d="M100.1,29.8h0.4v0.5h-0.4V29.8z M100.1,30.7h0.4V33h-0.4C100.1,33,100.1,30.7,100.1,30.7z"/>
			<path class="st0" d="M103.2,32.7L103.2,32.7c-0.2,0.2-0.5,0.4-0.9,0.4c-0.7,0-1.3-0.5-1.3-1.2s0.6-1.2,1.3-1.2
				c0.3,0,0.7,0.1,0.9,0.4l0,0v-1.2h0.4V33h-0.4V32.7L103.2,32.7z M102.3,32.7c0.6,0,0.9-0.4,0.9-0.9c0-0.5-0.3-0.9-0.9-0.9
				s-0.9,0.3-0.9,0.9C101.5,32.3,101.7,32.7,102.3,32.7z"/>
			<path class="st0" d="M104.2,31.4c0.1-0.6,0.5-0.8,1.2-0.8c0.5,0,1.1,0.1,1.1,0.7v1.2c0,0.1,0.1,0.2,0.2,0.2c0.1,0,0.1,0,0.2,0V33
				c-0.1,0-0.2,0-0.3,0c-0.2,0-0.4-0.1-0.4-0.3c-0.2,0.2-0.6,0.4-1,0.4c-0.8,0-0.9-0.4-0.9-0.7c0-0.4,0.2-0.6,1-0.7l0.5,0
				c0.2,0,0.4-0.1,0.4-0.3c0-0.3-0.3-0.4-0.7-0.4c-0.4,0-0.7,0.1-0.7,0.5L104.2,31.4L104.2,31.4z M106,31.8
				c-0.1,0.1-0.2,0.1-0.4,0.1L105,32c-0.3,0-0.5,0.1-0.5,0.4c0,0.2,0.2,0.4,0.5,0.4c0.5,0,0.9-0.3,0.9-0.7
				C106,32.1,106,31.8,106,31.8z"/>
		</g>
		<g>
			<g>
				<path class="st0" d="M24.9,10.1c0,1-0.8,1.9-2.1,1.9s-2.3-1-2.3-2.2s0.9-2.2,2.3-2.2c0.8,0,1.5,0.4,1.9,1l-0.3,0.2
					c-0.3-0.5-0.9-0.9-1.6-0.9c-1.1,0-1.9,0.8-1.9,1.9s0.8,1.9,2,1.9c1.1,0,1.7-0.6,1.8-1.5h-1.9V9.9h2.2L24.9,10.1L24.9,10.1z"/>
				<path class="st0" d="M22.8,12.1c-1.3,0-2.3-1-2.3-2.3s1-2.3,2.3-2.3c0.8,0,1.5,0.4,1.9,1.1v0l-0.3,0.2v0
					c-0.3-0.5-0.9-0.9-1.6-0.9c-1.1,0-1.9,0.8-1.9,1.9s0.8,1.9,1.9,1.9c1,0,1.6-0.6,1.7-1.4h-1.9V9.9h2.2v0.2
					C24.9,11.2,24,12,22.8,12.1L22.8,12.1z M22.8,7.6c-1.3,0-2.2,0.9-2.2,2.2s1,2.2,2.3,2.2c1.2,0,2.1-0.8,2.1-1.9V10h-2.1v0.2h1.9
					v0c-0.1,0.9-0.8,1.5-1.8,1.5c-1.2,0-2-0.8-2-1.9s0.9-1.9,2-1.9c0.7,0,1.3,0.3,1.6,0.9l0.2-0.1C24.2,8,23.5,7.6,22.8,7.6
					L22.8,7.6z"/>
			</g>
			<g>
				<path class="st0" d="M27,8.8v0.3c-0.5,0-1,0.3-1,1.1V12h-0.3V8.9H26v0.6C26.2,9,26.6,8.9,27,8.8L27,8.8z"/>
				<path class="st0" d="M26,12h-0.4V8.9H26v0.5c0.2-0.4,0.5-0.6,1-0.6h0v0.4h0c-0.5,0-1,0.3-1,1.1V12L26,12z M25.7,11.9H26v-1.7
					c0-0.8,0.5-1.1,1-1.1V8.9c-0.5,0-0.8,0.2-1,0.6L26,9.6V8.9h-0.2L25.7,11.9L25.7,11.9z"/>
			</g>
			<g>
				<path class="st0" d="M30.2,8.9V12h-0.3v-0.6c-0.2,0.5-0.6,0.6-1.1,0.6c-0.7,0-1.2-0.5-1.2-1.2V8.9h0.3v1.9
					c0,0.6,0.3,0.9,0.9,0.9s1.1-0.4,1.1-1.2V8.9L30.2,8.9L30.2,8.9z"/>
				<path class="st0" d="M28.8,12.1c-0.8,0-1.2-0.5-1.2-1.3V8.9h0.4v1.9c0,0.6,0.3,0.9,0.9,0.9c0.7,0,1.1-0.4,1.1-1.2V8.9h0.4V12
					h-0.4v-0.5C29.6,11.9,29.3,12.1,28.8,12.1L28.8,12.1z M27.6,8.9v1.9c0,0.7,0.5,1.2,1.2,1.2c0.5,0,0.9-0.2,1.1-0.6l0.1-0.1v0.7
					h0.2v-3h-0.2v1.6c0,0.8-0.4,1.3-1.1,1.3c-0.6,0-1-0.4-1-1V8.9C27.9,8.9,27.6,8.9,27.6,8.9z"/>
			</g>
			<g>
				<path class="st0" d="M34.4,10.4c0,0.9-0.7,1.6-1.6,1.6c-0.6,0-1.1-0.3-1.3-0.8v1.9h-0.3V8.9h0.3v0.7c0.3-0.5,0.7-0.8,1.3-0.8
					C33.7,8.8,34.4,9.5,34.4,10.4L34.4,10.4z M34.1,10.4c0-0.7-0.6-1.3-1.3-1.3s-1.3,0.6-1.3,1.3s0.6,1.3,1.3,1.3
					S34.1,11.2,34.1,10.4z"/>
				<path class="st0" d="M31.5,13.2h-0.4V8.8h0.4v0.6c0.3-0.4,0.8-0.7,1.3-0.7c0.9,0,1.6,0.7,1.6,1.6s-0.7,1.6-1.6,1.6
					c-0.6,0-1-0.2-1.3-0.7V13.2L31.5,13.2z M31.2,13.2h0.2v-2l0.1,0.1c0.3,0.5,0.7,0.8,1.3,0.8c0.9,0,1.6-0.7,1.6-1.6
					s-0.7-1.6-1.6-1.6c-0.6,0-1,0.3-1.3,0.8l-0.1,0.1V8.9h-0.2V13.2L31.2,13.2z M32.8,11.8c-0.8,0-1.4-0.6-1.4-1.3s0.6-1.3,1.4-1.3
					s1.3,0.6,1.3,1.3S33.6,11.8,32.8,11.8z M32.8,9.1c-0.7,0-1.3,0.6-1.3,1.3s0.6,1.3,1.3,1.3s1.3-0.6,1.3-1.3S33.5,9.1,32.8,9.1z"
					/>
			</g>
			<g>
				<path class="st0" d="M35,10.4c0-0.9,0.7-1.6,1.6-1.6s1.6,0.7,1.6,1.6S37.5,12,36.6,12S35,11.3,35,10.4z M37.9,10.4
					c0-0.7-0.6-1.3-1.3-1.3s-1.3,0.6-1.3,1.3s0.6,1.3,1.3,1.3S37.9,11.2,37.9,10.4z"/>
				<path class="st0" d="M36.6,12.1c-0.9,0-1.7-0.7-1.7-1.6s0.7-1.6,1.7-1.6s1.7,0.7,1.7,1.6S37.5,12.1,36.6,12.1z M36.6,8.8
					c-0.9,0-1.6,0.7-1.6,1.6s0.7,1.6,1.6,1.6s1.6-0.7,1.6-1.6S37.5,8.8,36.6,8.8z M36.6,11.8c-0.8,0-1.3-0.6-1.3-1.3
					s0.6-1.3,1.3-1.3S38,9.7,38,10.4S37.4,11.8,36.6,11.8z M36.6,9.1c-0.7,0-1.3,0.6-1.3,1.3s0.6,1.3,1.3,1.3s1.3-0.6,1.3-1.3
					S37.3,9.1,36.6,9.1z"/>
			</g>
		</g>
		<g>
			<path class="st0" d="M105.1,35.5c-0.1,0.2-0.2,0.2-0.3,0.3c-0.8,0.5-1.7,1-2.6,1.5c-2.2,1.2-4.5,2.2-6.9,3.1
				c-3,1.1-6.1,2.1-9.2,2.8c-1.8,0.5-3.7,0.9-5.6,1.2c-1.2,0.2-2.3,0.4-3.5,0.6c-0.9,0.1-1.8,0.3-2.6,0.4c-0.8,0.1-1.5,0.2-2.3,0.3
				c-0.5,0.1-1,0.1-1.5,0.2c-0.4,0-0.8,0.1-1.3,0.1c-0.3,0-0.7,0.1-1.1,0.1c-0.7,0-1.4,0.1-2.1,0.1c-0.3,0-0.6,0-0.8,0.1
				c-0.1,0-0.2,0-0.3,0c-1.2,0-2.3,0.1-3.5,0.1c-0.7,0-1.4,0-2.1,0.1c-1.6,0-3.1,0-4.7,0c-0.5,0-1.1,0-1.6,0c-0.7,0-1.3,0-2-0.1
				c-0.2,0-0.5,0-0.7,0c-0.5,0-0.9-0.1-1.4-0.1c-0.2,0-0.4,0-0.6,0c-0.3,0-0.6,0-0.9-0.1c-0.1,0-0.2,0-0.2,0c-0.7,0-1.3-0.1-1.9-0.1
				c-0.5,0-1.1-0.1-1.6-0.2c-0.5,0-1-0.1-1.4-0.2c-0.4,0-0.7-0.1-1.1-0.1c-0.9-0.1-1.8-0.3-2.8-0.4c-1-0.2-2.1-0.3-3.1-0.5
				c-1.3-0.2-2.6-0.5-3.9-0.8c-2.3-0.5-4.5-1.1-6.8-1.7c-3.1-0.9-6.2-2-9.2-3.4c-2.2-1-4.4-2.2-6.5-3.6C7.5,34.1,6,33,4.7,31.6
				c-1.2-1.2-2.2-2.5-3-3.9c-0.7-1.2-1.2-2.5-1.4-3.9C0,22.7,0,21.5,0.1,20.3C0.3,18.6,1,17,1.9,15.5c1-1.6,2.2-3,3.6-4.3
				c1.9-1.7,4-3.2,6.3-4.4c2.8-1.6,5.7-2.8,8.7-3.9c3-1.1,6-1.9,9-2.7c0.3-0.1,1-0.2,1.3-0.2l0,0c-0.2,0-0.6,0.2-0.7,0.2
				c-0.7,0.2-1.4,0.4-2.1,0.6c-2.8,0.9-5.5,1.9-8.1,3.1c-2.2,1-4.4,2.2-6.4,3.6c-1.6,1.1-3.1,2.3-4.4,3.7c-1.2,1.3-2.3,2.7-3,4.3
				c-0.6,1.2-1,2.5-1.2,3.8c-0.1,0.9-0.1,1.9,0,2.8c0.2,1.8,0.9,3.4,1.9,4.9c0.6,0.9,1.3,1.8,2,2.6c1.3,1.4,2.7,2.6,4.2,3.6
				c2.2,1.5,4.5,2.8,6.9,4c2.6,1.2,5.3,2.2,8,3.1c2.8,0.9,5.7,1.7,8.6,2.2c1.2,0.2,2.5,0.5,3.7,0.7c1.1,0.2,2.1,0.3,3.2,0.5
				c1,0.1,2,0.3,3,0.4c0.9,0.1,1.8,0.2,2.7,0.3c0.6,0.1,1.2,0.1,1.8,0.2c0,0,0,0,0.1,0c0.7,0,1.5,0.1,2.2,0.1c0.3,0,0.7,0,1,0.1
				c0.1,0,0.3,0,0.4,0c1.7,0,3.4,0.2,5.1,0.1c1.2,0,2.3,0,3.5,0c0.5,0,1,0,1.5,0c0.5,0,0.9,0,1.4,0c0.4,0,0.9,0,1.3-0.1
				c0.1,0,0.2,0,0.2,0c0.8,0,1.7-0.1,2.6-0.2c0.7,0,1.3-0.1,1.9-0.2c0.5,0,0.9-0.1,1.4-0.1c0.6-0.1,1.2-0.1,1.8-0.2
				c0.3,0,0.7-0.1,1-0.1c1.3-0.2,2.6-0.3,3.9-0.5c1.8-0.3,3.7-0.6,5.5-1c2.4-0.5,4.8-1.1,7.2-1.9c2.8-0.9,5.5-1.8,8.1-3
				c1.3-0.6,2.5-1.2,3.7-1.9C104.7,35.7,104.8,35.5,105.1,35.5L105.1,35.5L105.1,35.5z"/>
			<ellipse class="st0" cx="105.7" cy="35.1" rx="1" ry="1"/>
		</g>
	</g>
</g>
</svg>
