<?xml version="1.0" encoding="UTF-8"?>
<svg id="Capa_2" data-name="Capa 2" xmlns="http://www.w3.org/2000/svg" viewBox="0 0 106.79 46.57">
  <defs>
    <style>
      .cls-1 {
        fill: #fff;
      }
    </style>
  </defs>
  <g id="Capa_1-2" data-name="Capa 1">
    <g>
      <g>
        <path class="cls-1" d="M15.36,22.62h-4.23v5.45h-1.02V14.78h5.29c2.18,0,3.97,1.77,3.97,3.93,0,1.8-1.25,3.32-2.95,3.78l3.33,5.58h-1.17l-3.22-5.45Zm-4.23-.95h4.27c1.63,0,2.95-1.33,2.95-2.96s-1.32-2.98-2.95-2.98h-4.27v5.94Z"/>
        <path class="cls-1" d="M30.22,23.36c0,.15-.02,.3-.02,.46h-8.68c.23,2.14,1.88,3.55,4.06,3.55,1.57,0,2.76-.72,3.31-1.73l.84,.49c-.79,1.29-2.28,2.14-4.18,2.14-2.95,0-5.04-2.09-5.04-4.95s2.03-4.95,4.96-4.95,4.73,2.39,4.73,4.99Zm-8.7-.47h7.7c-.21-2.32-1.86-3.61-3.74-3.61-2.18,0-3.77,1.5-3.97,3.61Z"/>
        <path class="cls-1" d="M38.54,25.58c0,1.56-1.38,2.7-3.43,2.7-1.92,0-3.18-.89-3.64-2.11l.82-.47c.34,1.02,1.38,1.67,2.82,1.67,1.34,0,2.47-.59,2.47-1.78,0-2.58-5.81-1.1-5.81-4.52,0-1.5,1.3-2.7,3.26-2.7,1.55,0,2.74,.74,3.26,1.9l-.8,.46c-.4-.99-1.4-1.44-2.45-1.44-1.25,0-2.3,.65-2.3,1.78,0,2.54,5.81,1.04,5.81,4.52Z"/>
        <path class="cls-1" d="M50.9,23.32c0,2.81-2.22,4.95-4.96,4.95-1.86,0-3.33-.95-4.12-2.41v6h-.96v-13.29h.96v2.2c.79-1.46,2.26-2.41,4.12-2.41,2.74,0,4.96,2.14,4.96,4.95Zm-.96,0c0-2.26-1.78-4.04-4.06-4.04s-4.06,1.78-4.06,4.04,1.78,4.04,4.06,4.04,4.06-1.78,4.06-4.04Z"/>
        <path class="cls-1" d="M52.56,23.32c0-2.81,2.24-4.95,5.04-4.95s5.02,2.14,5.02,4.95-2.24,4.95-5.02,4.95-5.04-2.14-5.04-4.95Zm9.08,0c0-2.26-1.76-4.04-4.04-4.04s-4.06,1.78-4.06,4.04,1.78,4.04,4.06,4.04,4.04-1.78,4.04-4.04Z"/>
        <path class="cls-1" d="M73.03,22.16v5.9h-.98v-5.9c0-1.75-1.02-2.89-2.82-2.89s-3.35,1.21-3.35,3.78v5.01h-.96v-9.49h.96v1.8c.73-1.4,1.95-2.01,3.43-2.01,2.28,0,3.72,1.5,3.72,3.8Z"/>
        <path class="cls-1" d="M82.18,25.58c0,1.56-1.38,2.7-3.43,2.7-1.92,0-3.18-.89-3.64-2.11l.82-.47c.34,1.02,1.38,1.67,2.82,1.67,1.34,0,2.47-.59,2.47-1.78,0-2.58-5.81-1.1-5.81-4.52,0-1.5,1.3-2.7,3.26-2.7,1.55,0,2.74,.74,3.26,1.9l-.8,.46c-.4-.99-1.4-1.44-2.45-1.44-1.25,0-2.3,.65-2.3,1.78,0,2.54,5.81,1.04,5.81,4.52Z"/>
        <path class="cls-1" d="M84.12,15.52c0-.4,.34-.74,.77-.74s.77,.34,.77,.74-.34,.76-.77,.76-.77-.34-.77-.76Zm.29,3.06h.96v9.49h-.96v-9.49Z"/>
        <path class="cls-1" d="M96.36,18.57l-4.04,9.49h-1.17l-4.06-9.49h1.03l3.6,8.5,3.62-8.5h1.02Z"/>
        <path class="cls-1" d="M106.77,23.36c0,.15-.02,.3-.02,.46h-8.68c.23,2.14,1.88,3.55,4.06,3.55,1.57,0,2.76-.72,3.31-1.73l.84,.49c-.79,1.29-2.28,2.14-4.18,2.14-2.95,0-5.04-2.09-5.04-4.95s2.03-4.95,4.96-4.95,4.73,2.39,4.73,4.99Zm-8.7-.47h7.7c-.21-2.32-1.86-3.61-3.74-3.61-2.18,0-3.77,1.5-3.97,3.61Z"/>
      </g>
      <g>
        <path class="cls-1" d="M52.99,32.29c0,.21,.17,.46,.74,.46s.71-.2,.71-.36-.08-.26-.44-.31l-.74-.1c-.33-.04-.63-.26-.63-.61,0-.47,.41-.75,1.07-.75,.77,0,1.1,.33,1.14,.78h-.45c-.01-.23-.24-.43-.7-.43-.29,0-.62,.08-.62,.35,0,.15,.07,.24,.39,.29l.63,.08c.59,.08,.82,.29,.82,.61,0,.54-.46,.79-1.17,.79-.54,0-1.15-.14-1.2-.81h.45Z"/>
        <path class="cls-1" d="M56.58,30.63c.91,0,1.36,.57,1.36,1.24s-.45,1.24-1.36,1.24-1.36-.57-1.36-1.24,.45-1.24,1.36-1.24Zm0,.37c-.65,0-.88,.45-.88,.87s.24,.87,.88,.87,.88-.45,.88-.87-.24-.87-.88-.87Z"/>
        <path class="cls-1" d="M58.38,29.84h.45v3.18h-.45v-3.18Z"/>
        <path class="cls-1" d="M61.72,33.02h-.45v-.35h0c-.21,.32-.58,.43-.91,.43-.56,0-.98-.24-.98-.82v-1.58h.45v1.49c0,.34,.21,.53,.69,.53,.41,0,.77-.23,.77-.69v-1.34h.45v2.32Z"/>
        <path class="cls-1" d="M64.65,32.17c-.19,.69-.61,.93-1.22,.93-.93,0-1.27-.62-1.27-1.22,0-.69,.42-1.25,1.27-1.25,.62,0,1.12,.28,1.21,.85h-.47c-.05-.3-.29-.48-.71-.48-.57,0-.83,.37-.83,.87s.25,.87,.83,.87c.4,0,.62-.17,.72-.56h.47Z"/>
        <path class="cls-1" d="M65.08,29.84h.45v.49h-.45v-.49Zm0,.87h.45v2.32h-.45v-2.32Z"/>
        <path class="cls-1" d="M67.32,30.63c.91,0,1.36,.57,1.36,1.24s-.45,1.24-1.36,1.24-1.36-.57-1.36-1.24,.45-1.24,1.36-1.24Zm0,.37c-.65,0-.88,.45-.88,.87s.24,.87,.88,.87,.88-.45,.88-.87-.24-.87-.88-.87Z"/>
        <path class="cls-1" d="M69.12,30.71h.45v.35h0c.21-.32,.58-.43,.91-.43,.56,0,.98,.24,.98,.82v1.58h-.45v-1.49c0-.34-.21-.53-.69-.53-.41,0-.77,.23-.77,.69v1.33h-.45v-2.32Z"/>
        <path class="cls-1" d="M72.38,32c.04,.48,.46,.73,.86,.73,.25,0,.6-.08,.75-.41h.47c-.22,.56-.75,.78-1.2,.78-.91,0-1.36-.57-1.36-1.24s.45-1.24,1.36-1.24c.62,0,1.27,.35,1.27,1.31v.06h-2.15Zm1.68-.34c-.07-.42-.4-.65-.82-.65s-.78,.24-.85,.65h1.66Z"/>
        <path class="cls-1" d="M75.3,32.29c0,.21,.17,.46,.74,.46s.71-.2,.71-.36-.08-.26-.44-.31l-.74-.1c-.33-.04-.63-.26-.63-.61,0-.47,.41-.75,1.07-.75,.77,0,1.1,.33,1.14,.78h-.45c-.01-.23-.24-.43-.7-.43-.29,0-.62,.08-.62,.35,0,.15,.07,.24,.39,.29l.63,.08c.59,.08,.82,.29,.82,.61,0,.54-.46,.79-1.17,.79-.54,0-1.15-.14-1.2-.81h.45Z"/>
        <path class="cls-1" d="M79.12,31.43c.06-.58,.46-.8,1.16-.8,.48,0,1.08,.12,1.08,.66v1.25c0,.14,.06,.2,.2,.2,.05,0,.11,0,.16-.02v.31c-.11,.02-.24,.03-.35,.03-.22,0-.37-.06-.4-.32-.18,.24-.62,.38-1,.38-.78,0-.95-.4-.95-.7,0-.42,.25-.64,1-.72l.51-.05c.25-.03,.41-.07,.41-.28,0-.32-.31-.38-.67-.38-.38,0-.71,.1-.72,.46h-.42Zm1.82,.38c-.07,.08-.19,.11-.44,.14l-.5,.06c-.35,.04-.53,.14-.53,.38,0,.22,.22,.37,.54,.37,.5,0,.93-.27,.93-.65v-.3Z"/>
        <path class="cls-1" d="M83.7,30h.45v.71h.67v.34h-.67v1.43c0,.19,.13,.25,.36,.25,.1,0,.21-.01,.31-.03v.37c-.15,.03-.32,.03-.5,.03-.44,0-.62-.21-.62-.55v-1.5h-.48v-.34h.48v-.71Z"/>
        <path class="cls-1" d="M87.51,33.02h-.45v-.35h0c-.21,.32-.58,.43-.91,.43-.56,0-.98-.24-.98-.82v-1.58h.45v1.49c0,.34,.21,.53,.69,.53,.41,0,.77-.23,.77-.69v-1.34h.45v2.32Z"/>
        <path class="cls-1" d="M93.1,31.55c0-.42-.27-.55-.56-.55-.41,0-.77,.19-.77,.62v1.4h-.45v-1.47c0-.42-.27-.55-.56-.55-.41,0-.77,.23-.77,.69v1.33h-.45v-2.32h.45v.35h0c.21-.32,.58-.43,.91-.43,.3,0,.61,.12,.79,.43,.21-.27,.5-.43,.95-.43,.24,0,.89,.11,.89,.82v1.58h-.45v-1.47Z"/>
        <path class="cls-1" d="M94.46,32c.04,.48,.46,.73,.86,.73,.25,0,.6-.08,.75-.41h.47c-.22,.56-.75,.78-1.2,.78-.91,0-1.36-.57-1.36-1.24s.45-1.24,1.36-1.24c.62,0,1.27,.35,1.27,1.31v.06h-2.15Zm1.68-.34c-.07-.42-.4-.65-.82-.65s-.78,.24-.85,.65h1.66Z"/>
        <path class="cls-1" d="M99.13,32.73h0c-.17,.24-.54,.38-.89,.38-.71,0-1.27-.45-1.27-1.22s.57-1.22,1.27-1.22c.35,0,.71,.12,.89,.38h0v-1.19h.45v3.18h-.45v-.3Zm-.84,0c.61,0,.87-.42,.87-.85,0-.53-.34-.85-.87-.85s-.86,.32-.86,.85c0,.44,.25,.85,.86,.85Z"/>
        <path class="cls-1" d="M100.12,29.84h.45v.49h-.45v-.49Zm0,.87h.45v2.32h-.45v-2.32Z"/>
        <path class="cls-1" d="M103.17,32.73h0c-.17,.24-.54,.38-.89,.38-.71,0-1.27-.45-1.27-1.22s.57-1.22,1.27-1.22c.35,0,.71,.12,.89,.38h0v-1.19h.45v3.18h-.45v-.3Zm-.84,0c.61,0,.87-.42,.87-.85,0-.53-.34-.85-.87-.85s-.86,.32-.86,.85c0,.44,.25,.85,.86,.85Z"/>
        <path class="cls-1" d="M104.16,31.43c.06-.58,.46-.8,1.16-.8,.48,0,1.08,.12,1.08,.66v1.25c0,.14,.06,.2,.2,.2,.05,0,.11,0,.16-.02v.31c-.11,.02-.24,.03-.35,.03-.22,0-.37-.06-.4-.32-.18,.24-.62,.38-1,.38-.78,0-.95-.4-.95-.7,0-.42,.25-.64,1-.72l.51-.05c.25-.03,.41-.07,.41-.28,0-.32-.31-.38-.67-.38-.38,0-.71,.1-.72,.46h-.42Zm1.82,.38c-.07,.08-.19,.11-.44,.14l-.5,.06c-.35,.04-.53,.14-.53,.38,0,.22,.22,.37,.54,.37,.5,0,.93-.27,.93-.65v-.3Z"/>
      </g>
      <g>
        <g>
          <path class="cls-1" d="M24.9,10.12c0,1.04-.8,1.91-2.11,1.91s-2.29-.99-2.29-2.23,.94-2.23,2.27-2.23c.81,0,1.51,.42,1.88,1.04l-.29,.17c-.29-.54-.9-.9-1.58-.9-1.15,0-1.94,.85-1.94,1.91s.79,1.91,1.96,1.91c1.06,0,1.7-.65,1.77-1.46h-1.85v-.31h2.19v.17Z"/>
          <path class="cls-1" d="M22.8,12.06c-1.32,0-2.32-.97-2.32-2.26s.99-2.26,2.3-2.26c.79,0,1.52,.41,1.9,1.06v.03s-.33,.2-.33,.2v-.03c-.3-.54-.91-.89-1.57-.89-1.09,0-1.91,.81-1.91,1.88s.81,1.88,1.93,1.88c.96,0,1.65-.56,1.74-1.4h-1.85v-.37h2.25v.2c0,1.13-.9,1.94-2.14,1.94Zm-.02-4.46c-1.28,0-2.24,.95-2.24,2.2s.97,2.2,2.26,2.2c1.2,0,2.08-.79,2.08-1.88v-.14h-2.13v.25h1.85v.03c-.08,.89-.8,1.48-1.8,1.48-1.16,0-1.99-.82-1.99-1.94s.85-1.94,1.97-1.94c.67,0,1.29,.35,1.59,.89l.24-.14c-.37-.62-1.07-1-1.84-1Z"/>
        </g>
        <g>
          <path class="cls-1" d="M27.02,8.84v.3c-.54,0-1.04,.33-1.04,1.12v1.72h-.31v-3.09h.31v.61c.21-.49,.62-.65,1.04-.65Z"/>
          <path class="cls-1" d="M26.01,12h-.37v-3.15h.37v.51c.2-.36,.55-.55,1.01-.55h.03v.36h-.03c-.49,0-1.01,.29-1.01,1.09v1.75Zm-.31-.06h.25v-1.69c0-.83,.53-1.14,1.04-1.15v-.24c-.47,0-.81,.22-.98,.63l-.06,.13v-.72h-.25v3.03Z"/>
        </g>
        <g>
          <path class="cls-1" d="M30.21,8.88v3.09h-.31v-.59c-.24,.46-.64,.65-1.12,.65-.74,0-1.21-.49-1.21-1.24v-1.92h.32v1.92c0,.57,.33,.94,.92,.94s1.09-.4,1.09-1.23v-1.63h.31Z"/>
          <path class="cls-1" d="M28.78,12.06c-.75,0-1.24-.5-1.24-1.26v-1.95h.38v1.95c0,.57,.33,.91,.89,.91,.66,0,1.06-.45,1.06-1.2v-1.66h.37v3.15h-.37v-.5c-.23,.37-.61,.57-1.09,.57Zm-1.18-3.16v1.89c0,.73,.46,1.21,1.18,1.21,.5,0,.87-.21,1.09-.64l.06-.11v.68h.25v-3.03h-.25v1.6c0,.78-.43,1.26-1.12,1.26-.58,0-.95-.37-.95-.97v-1.89h-.26Z"/>
        </g>
        <g>
          <path class="cls-1" d="M34.43,10.42c0,.91-.72,1.61-1.61,1.61-.6,0-1.08-.31-1.34-.78v1.95h-.31v-4.32h.31v.72c.26-.48,.74-.78,1.34-.78,.89,0,1.61,.7,1.61,1.61Zm-.31,0c0-.73-.58-1.32-1.32-1.32s-1.32,.58-1.32,1.32,.58,1.32,1.32,1.32,1.32-.58,1.32-1.32Z"/>
          <path class="cls-1" d="M31.51,13.23h-.37v-4.38h.37v.64c.28-.45,.75-.7,1.31-.7,.92,0,1.64,.72,1.64,1.64s-.72,1.64-1.64,1.64c-.56,0-1.03-.25-1.31-.7v1.87Zm-.31-.06h.25v-2.04l.06,.1c.26,.49,.74,.77,1.31,.77,.89,0,1.58-.69,1.58-1.58s-.7-1.58-1.58-1.58c-.57,0-1.05,.28-1.31,.77l-.06,.1v-.81h-.25v4.26Zm1.6-1.4c-.76,0-1.35-.59-1.35-1.34s.59-1.34,1.35-1.34,1.35,.59,1.35,1.34-.59,1.34-1.35,1.34Zm0-2.63c-.72,0-1.29,.56-1.29,1.29s.57,1.29,1.29,1.29,1.29-.56,1.29-1.29-.57-1.29-1.29-1.29Z"/>
        </g>
        <g>
          <path class="cls-1" d="M34.98,10.42c0-.91,.73-1.61,1.64-1.61s1.63,.7,1.63,1.61-.73,1.61-1.63,1.61-1.64-.7-1.64-1.61Zm2.95,0c0-.73-.57-1.32-1.32-1.32s-1.32,.58-1.32,1.32,.58,1.32,1.32,1.32,1.32-.58,1.32-1.32Z"/>
          <path class="cls-1" d="M36.62,12.06c-.94,0-1.67-.72-1.67-1.64s.73-1.64,1.67-1.64,1.66,.72,1.66,1.64-.73,1.64-1.66,1.64Zm0-3.22c-.9,0-1.61,.69-1.61,1.58s.71,1.58,1.61,1.58,1.6-.69,1.6-1.58-.7-1.58-1.6-1.58Zm0,2.93c-.76,0-1.35-.59-1.35-1.34s.59-1.34,1.35-1.34,1.35,.59,1.35,1.34-.59,1.34-1.35,1.34Zm0-2.63c-.72,0-1.29,.56-1.29,1.29s.57,1.29,1.29,1.29,1.29-.56,1.29-1.29-.56-1.29-1.29-1.29Z"/>
        </g>
      </g>
      <g>
        <path class="cls-1" d="M105.08,35.53c-.05,.16-.2,.21-.33,.28-.84,.54-1.71,1.03-2.6,1.51-2.23,1.19-4.53,2.2-6.89,3.1-3,1.14-6.08,2.06-9.19,2.84-1.84,.46-3.69,.86-5.55,1.21-1.17,.22-2.34,.41-3.51,.6-.88,.14-1.76,.28-2.64,.4-.75,.1-1.51,.17-2.27,.26-.5,.06-.99,.12-1.49,.18-.42,.05-.85,.08-1.28,.12-.35,.03-.7,.07-1.05,.09-.69,.05-1.37,.09-2.06,.14-.28,.02-.56,.04-.83,.06-.09,0-.18,.02-.28,.02-1.15,.05-2.3,.09-3.45,.14-.71,.03-1.41,.05-2.12,.06-1.56,.03-3.12,.05-4.68-.02-.54-.02-1.08-.03-1.62-.04-.67-.01-1.34-.01-2-.08-.22-.02-.45-.02-.67-.03-.46-.03-.93-.06-1.39-.08-.2-.01-.41-.02-.61-.03-.31-.02-.63-.05-.94-.07-.07,0-.15-.02-.22-.02-.65-.05-1.3-.09-1.94-.14-.54-.05-1.07-.12-1.61-.17-.48-.05-.96-.1-1.44-.15-.37-.04-.74-.08-1.11-.13-.92-.13-1.84-.26-2.75-.4-1.03-.16-2.06-.3-3.08-.49-1.3-.24-2.59-.49-3.88-.77-2.29-.49-4.55-1.07-6.79-1.74-3.15-.94-6.24-2.05-9.22-3.42-2.25-1.03-4.42-2.19-6.47-3.56-1.59-1.06-3.09-2.24-4.44-3.59-1.18-1.18-2.23-2.47-3.05-3.93-.69-1.21-1.19-2.5-1.44-3.87-.21-1.15-.23-2.3-.08-3.46,.23-1.74,.87-3.34,1.78-4.84,.98-1.6,2.21-3,3.6-4.26,1.91-1.74,4.04-3.18,6.29-4.45,2.77-1.56,5.67-2.82,8.66-3.91,2.95-1.07,5.96-1.94,9.01-2.69,.27-.06,.96-.24,1.32-.19h0c-.25,.03-.61,.16-.68,.18-.71,.21-1.42,.43-2.13,.65-2.78,.87-5.5,1.9-8.14,3.13-2.24,1.04-4.4,2.23-6.43,3.63-1.59,1.1-3.08,2.31-4.41,3.71-1.22,1.28-2.26,2.68-3.04,4.27-.6,1.22-1,2.5-1.15,3.84-.11,.93-.09,1.87,.04,2.81,.25,1.78,.91,3.41,1.86,4.93,.59,.94,1.27,1.82,2.02,2.63,1.26,1.36,2.66,2.56,4.17,3.64,2.18,1.55,4.51,2.85,6.93,3.98,2.59,1.21,5.26,2.22,7.98,3.08,2.83,.9,5.7,1.65,8.61,2.24,1.24,.25,2.47,.5,3.71,.72,1.06,.19,2.13,.33,3.19,.49,.99,.14,1.98,.28,2.98,.4,.88,.1,1.77,.18,2.66,.26,.61,.06,1.22,.12,1.83,.18,.02,0,.04,0,.06,0,.74,.05,1.48,.09,2.22,.14,.33,.02,.67,.04,1,.06,.13,0,.26,.03,.39,.03,1.71,.03,3.41,.15,5.12,.13,1.17-.01,2.34,0,3.51-.02,.5,0,1-.04,1.5-.05,.46-.02,.93-.02,1.39-.04,.45-.02,.89-.05,1.33-.07,.07,0,.15-.01,.22-.02,.85-.05,1.71-.09,2.56-.15,.65-.05,1.29-.12,1.94-.18,.46-.04,.92-.09,1.39-.13,.59-.06,1.18-.13,1.77-.2,.33-.04,.66-.08,.99-.12,1.29-.15,2.57-.35,3.86-.55,1.85-.29,3.69-.64,5.52-1.04,2.41-.52,4.8-1.14,7.15-1.87,2.77-.86,5.48-1.85,8.11-3.05,1.27-.58,2.51-1.2,3.72-1.87,.17-.1,.33-.24,.56-.23h0Z"/>
        <ellipse class="cls-1" cx="105.74" cy="35.07" rx="1.04" ry="1.03"/>
      </g>
    </g>
  </g>
</svg>